
        <svg xmlns="http://www.w3.org/2000/svg" xmlns:xlink="http://www.w3.org/1999/xlink" version="1.1" width="3171.4285714285716" 
        height="2140.285267116683" viewBox="0 0 3171.4285714285716 2140.285267116683">
			
			<g transform="scale(8.57142857142857) translate(10, 10)">
				<defs id="SvgjsDefs1380"></defs><g id="SvgjsG1381" featureKey="1p4tPl-0" transform="matrix(0.3104214324667543,0,0,0.3104214324667543,95.58766529157508,-8.070957244135611)" fill="#eaa159"><g xmlns="http://www.w3.org/2000/svg"><g><path d="M463.867,292.42c-1.957,0.758-3.955,1.477-5.924,2.182c-7.24,2.602-15.449,5.547-17.879,9.58    c-1.984,3.291-2.568,7.158-1.646,10.889c0.922,3.732,3.24,6.879,6.527,8.859c2.246,1.354,4.809,2.07,7.41,2.07    c5.102,0,9.717-2.604,12.346-6.965c2.451-4.063,1.242-12.201,0.076-20.074C464.455,296.799,464.129,294.604,463.867,292.42z"></path><path d="M209.818,224.602c-7.242,2.601-15.45,5.548-17.881,9.581c-1.984,3.29-2.568,7.157-1.646,10.889    c0.922,3.731,3.241,6.877,6.527,8.859c2.245,1.354,4.808,2.069,7.411,2.069c5.102,0,9.716-2.604,12.346-6.963    c2.45-4.063,1.242-12.203,0.074-20.074c-0.321-2.162-0.646-4.358-0.909-6.541C213.783,223.178,211.785,223.896,209.818,224.602z"></path><path d="M119.816,190.573c-7.241,2.6-15.449,5.547-17.88,9.58c-4.097,6.796-1.907,15.655,4.882,19.748    c2.245,1.354,4.808,2.069,7.411,2.069c5.101,0,9.716-2.603,12.346-6.963c2.449-4.063,1.242-12.203,0.074-20.074    c-0.321-2.162-0.646-4.358-0.909-6.541C123.783,189.149,121.784,189.867,119.816,190.573z"></path><path d="M310.615,186h133.676c17.359-1,30.945-15.352,30.945-33.631c0-18.235-14.773-33.071-32.932-33.071l-0.564,0.016    c-1.465,0.025-2.902-0.614-3.871-1.739c-0.967-1.125-1.385-2.623-1.141-4.086c0.383-2.28,0.576-4.569,0.576-6.804    C437.305,84.25,419.129,66,396.787,66c-15.514,0-29.434,8.685-36.326,22.665c-1.188,2.408-4.066,3.448-6.52,2.356    c-3.246-1.446-6.697-2.179-10.258-2.179c-13.975,0-25.344,11.42-25.344,25.457c0,0.116,0.004,0.231,0.008,0.347l0.01,0.278    c0.064,2.428-1.623,4.551-4.002,5.035c-15.275,3.104-26.361,16.735-26.361,32.412C287.994,167.898,297.469,182,310.615,186z"></path><path d="M412.41,247.051c-3.121,0.359-6.637,0.535-10.748,0.535c-5.873,0-12.209-0.354-18.92-0.729    c-7.559-0.422-15.375-0.858-23.541-0.858c-21.838,0-50.301,2.813-76.795,24.766c-13.75,11.459-22.154,27.801-23.664,46.018    c-1.502,18.125,4,35.703,15.541,49.551c0.57,0.665,1.166,1.302,1.758,1.942c-12.084,22.163-19.108,45.069-20.925,68.094    c-7.149-11.702-16.095-19.627-24.115-24.878c-9.717-6.36-19.202-9.664-25.634-11.339c0.455-0.713,0.903-1.431,1.321-2.173    c6.53-11.344,8.221-24.359,4.76-36.648c-3.381-12.002-11.331-21.932-22.345-27.939c-10.663-5.947-22.013-8.838-34.696-8.838    c-12.374,0-24.027,2.764-34.309,5.203c-7.175,1.701-13.951,3.309-19.679,3.637c-2.292,0.131-4.2,1.807-4.627,4.063    c-0.428,2.256,0.737,4.512,2.823,5.473c18.673,8.588,18.898,14.209,19.346,25.404c0.22,5.492,0.493,12.326,3.099,20.576    c3.696,11.09,11.617,20.559,21.74,25.992c7.2,4.252,15.384,6.5,23.672,6.5c0.001,0,0,0,0.001,0    c11.972,0,23.278-4.651,31.717-12.603c4.525,0.832,16.032,3.566,27.679,11.288c14.819,9.823,24.657,23.913,29.391,42.021    c0.419,4.637,1.053,9.269,1.9,13.892H132.984c-2.761,0-5,2.238-5,5s2.239,5,5,5h200c2.762,0,5-2.238,5-5s-2.238-5-5-5H267.85    c-0.584-5.629-1.523-10.849-2.762-15.679c-2.537-28.765,3.641-57.228,18.459-85.044c12.111,9.732,27.182,15.164,42.883,15.164    c15.906,0,31.311-5.695,43.316-15.986c21.043-17.477,25.057-45.586,28.598-70.387c2.916-20.426,5.67-39.719,17.496-47.946    c1.881-1.309,2.631-3.729,1.82-5.872S414.693,246.786,412.41,247.051z M166.471,411c-6.53,0-12.984-1.582-18.664-4.955    c-0.065-0.039-0.133,0.024-0.2-0.013c-7.818-4.17-14.196-11.741-17.036-20.261c-2.179-6.898-2.402-12.459-2.618-17.861    c-0.437-10.924-1.697-18.991-12.4-26.843c2.242-0.498,4.527-0.812,6.853-1.362c10.225-2.426,20.797-4.705,32.001-4.705    c0.002,0,0.003,0,0.005,0c-11.202,0-21.772,2.285-31.995,4.711c-2.325,0.551-4.611,0.982-6.853,1.48    c10.703,7.852,11.964,15.876,12.4,26.8c0.216,5.402,0.439,10.96,2.618,17.858c2.84,8.52,9.218,16.127,17.037,20.297    c0.067,0.037,0.134-0.134,0.2-0.095c5.679,3.372,12.131,4.948,18.659,4.948C166.475,411,166.473,411,166.471,411z     M268.709,317.609c1.287-15.525,8.426-29.432,20.09-39.152C312.822,258.553,339.041,256,359.201,256h0.002    c-20.158,0-46.373,2.556-70.395,22.457c-11.664,9.721-18.803,23.627-20.09,39.152c-1.258,15.171,3.229,29.871,12.621,41.523    c-0.002,0.003-0.004,0.005-0.006,0.008C271.939,347.487,267.449,332.783,268.709,317.609z M298.586,351.279    c22.586-31.248,48.51-49.73,48.881-49.994c2.258-1.588,2.803-4.707,1.213-6.965c-0.992-1.412-2.58-2.152-4.182-2.124    c1.605-0.032,3.199,0.709,4.193,2.124c1.588,2.258,1.045,5.377-1.215,6.965c-0.371,0.264-26.295,18.746-48.879,49.994    c-3.643,5.038-6.986,10.102-10.045,15.188c0.559,0.475,1.129,0.932,1.701,1.383c-0.576-0.453-1.152-0.906-1.711-1.383    C291.602,361.381,294.945,356.317,298.586,351.279z M323.512,380.361c-0.336-0.017-0.67-0.045-1.004-0.067    C322.842,380.316,323.176,380.345,323.512,380.361z M320.602,380.137c-0.389-0.039-0.775-0.084-1.162-0.131    C319.826,380.053,320.213,380.098,320.602,380.137z M317.691,379.766c-0.395-0.06-0.789-0.118-1.182-0.187    C316.902,379.647,317.297,379.706,317.691,379.766z M314.715,379.232c-0.354-0.072-0.711-0.137-1.064-0.217    C314.004,379.096,314.361,379.16,314.715,379.232z M311.029,378.36c-0.432-0.118-0.859-0.254-1.287-0.382    C310.17,378.106,310.598,378.242,311.029,378.36z M308.316,377.539c-0.477-0.156-0.949-0.323-1.422-0.491    C307.367,377.216,307.84,377.383,308.316,377.539z M305.662,376.594c-0.494-0.188-0.984-0.381-1.473-0.583    C304.678,376.213,305.168,376.405,305.662,376.594z M303.1,375.543c-0.516-0.226-1.031-0.449-1.541-0.689    C302.068,375.094,302.584,375.317,303.1,375.543z M300.891,374.523c-1.182-0.576-2.346-1.192-3.49-1.848    C298.543,373.332,299.709,373.946,300.891,374.523z M296.895,372.39c-0.559-0.327-1.107-0.671-1.654-1.017    C295.787,371.719,296.336,372.063,296.895,372.39z M294.52,370.915c-0.537-0.352-1.07-0.712-1.598-1.081    C293.449,370.203,293.982,370.563,294.52,370.915z M292.258,369.358c-0.545-0.392-1.084-0.788-1.615-1.199    C291.174,368.57,291.715,368.967,292.258,369.358z M326.381,380.44c0.02,0,0.037,0.001,0.055,0.001c-0.002,0-0.004,0-0.006,0    C326.414,380.441,326.398,380.44,326.381,380.44z"></path><path d="M237.984,141c0-2.761-2.238-5-5-5H72.192c-14.265,0-25.428-12.643-25.428-27.688c0-15.006,12.155-27.214,27.096-27.214    l0.451,0.013c1.488,0.03,2.908-0.607,3.88-1.733c0.971-1.126,1.391-2.625,1.145-4.092c-0.315-1.885-0.476-3.779-0.476-5.63    C78.86,51.098,93.894,36,112.375,36c12.832,0,24.346,7.184,30.048,18.749c1.222,2.477,4.219,3.496,6.695,2.273    c2.478-1.221,3.495-4.219,2.273-6.695C143.994,35.321,129.042,26,112.375,26C88.38,26,68.86,45.583,68.86,69.656    c0,0.589,0.012,1.181,0.037,1.774c-18.116,2.441-32.133,18.051-32.133,36.882c0,20.503,15.455,37.057,35.186,37.685    c0.053,0.002,0.105,0.003,0.159,0.003h160.875C235.746,146,237.984,143.761,237.984,141z"></path><path d="M97.144,303.773l20-30c1.532-2.299,0.911-5.402-1.387-6.934c-2.298-1.533-5.402-0.912-6.934,1.387l-20,30    c-1.531,2.297-0.911,5.402,1.387,6.934c0.853,0.568,1.816,0.84,2.77,0.84C94.595,306,96.181,305.219,97.144,303.773z"></path><path d="M409.09,396.84c-2.297-1.533-5.402-0.912-6.934,1.387l-13.332,20c-1.533,2.297-0.912,5.402,1.387,6.934    c0.852,0.568,1.814,0.84,2.768,0.84c1.617,0,3.203-0.781,4.166-2.227l13.332-20C412.01,401.475,411.389,398.371,409.09,396.84z"></path><path d="M260.211,235.16c0.852,0.568,1.814,0.841,2.768,0.841c1.617,0,3.203-0.782,4.166-2.228l13.332-20    c1.533-2.298,0.912-5.401-1.387-6.934c-2.297-1.532-5.402-0.911-6.934,1.387l-13.332,20    C257.293,230.524,257.912,233.627,260.211,235.16z"></path></g></g></g><g id="SvgjsG1382" featureKey="dYASrj-0" transform="matrix(3.648873841144594,0,0,3.648873841144594,-4.378649653324692,141.10675695313245)" fill="#ffffff"><path d="M9.1 16.92 c0.32 0 0.5 0.18 0.5 0.5 l0 2.08 c0 0.32 -0.18 0.5 -0.5 0.5 l-6.9 0 l-0.5 0 c-0.32 0 -0.5 -0.18 -0.5 -0.5 l0 -13 c0 -0.32 0.18 -0.5 0.5 -0.5 l2.7 0 l4.6 0 c0.32 0 0.5 0.18 0.5 0.5 l0 2.08 c0 0.32 -0.18 0.5 -0.5 0.5 l-4.6 0 l0 2.34 l4.1 0 c0.32 0 0.5 0.18 0.5 0.5 l0 2 c0 0.32 -0.18 0.5 -0.5 0.5 l-4.1 0 l0 2.5 l4.7 0 z M16.900000000000002 9.72 c1.86 0 3.2 1.44 3.2 3.94 l0 5.84 c0 0.32 -0.18 0.5 -0.5 0.5 l-2 0 c-0.32 0 -0.5 -0.18 -0.5 -0.5 l0 -5.58 c0 -1 -0.58 -1.44 -1.34 -1.44 c-0.9 0 -1.46 0.5 -1.46 1.68 l0 5.34 c0 0.32 -0.18 0.5 -0.5 0.5 l-2 0 c-0.32 0 -0.5 -0.18 -0.5 -0.5 l0 -9 c0 -0.32 0.18 -0.5 0.5 -0.5 l2 0 c0.32 0 0.5 0.18 0.5 0.5 l0 0.4134 c0.47 -0.695 1.3214 -1.1934 2.6 -1.1934 z M26.900000000000002 9.72 c2.92 0 5.04 2.26 5.04 5.28 c0 0.26 -0.02 0.5 -0.04 0.74 c-0.04 0.32 -0.24 0.46 -0.54 0.46 l-2.44 0 l-4.2388 0 c0.3634 1.1882 1.2966 1.66 2.3388 1.66 c0.56 0 1.12 -0.2 1.48 -0.5 c0.2 -0.16 0.36 -0.26 0.62 -0.26 l1.92 -0.02 c0.36 0 0.56 0.24 0.4 0.56 c-0.78 1.74 -2.42 2.64 -4.46 2.64 c-3.32 0 -5.44 -2.3 -5.44 -5.28 s2.2 -5.28 5.36 -5.28 z M24.6686 13.92 l4.285 0 c-0.3092 -1.138 -1.1914 -1.54 -2.0736 -1.54 c-1.1244 0 -1.9024 0.5426 -2.2114 1.54 z M38.68 9.84 c0.34 -0.06 0.52 0.1598 0.52 0.4798 l0 2.36 c0 0.32 -0.14 0.48 -0.4 0.48 c-1.12 -0.04 -2.2 0.52 -2.2 2.12 l0 4.22 c0 0.32 -0.18 0.5 -0.5 0.5 l-2 0 c-0.32 0 -0.5 -0.18 -0.5 -0.5 l0 -9 c0 -0.32 0.18 -0.5 0.5 -0.5 l2 0 c0.32 0 0.5 0.18 0.5 0.5 l0 1.081 c0.2984 -1.004 1.0864 -1.5918 2.08 -1.7408 z M50.26 10 c0.32 0 0.5 0.17961 0.5 0.4996 l0 9 c0 3.36 -2.7 4.78 -5.14 4.78 c-2.46 0 -4.74 -1.16 -5.04 -3.56 c-0.02 -0.34 0.18 -0.52 0.5 -0.52 l2.02 0 c0.3 0 0.44 0.16 0.54 0.44 c0.22 0.6 0.88 1 1.98 1 c1.34 0 2.22 -0.72 2.22 -2.14 l0 -0.90881 c-0.6702 0.7998 -1.6674 1.289 -3.06 1.289 c-2.62 0 -4.78 -2.3 -4.78 -5.08 s2.16 -5.08 4.78 -5.08 c1.3926 0 2.3898 0.4892 3.06 1.289 l0 -0.50881 c0 -0.32 0.18 -0.5 0.5 -0.5 l1.92 0 z M45.42 17.1196 c1.42 0 2.42 -0.94 2.42 -2.32 s-1 -2.32 -2.42 -2.32 s-2.42 0.94 -2.42 2.32 s1 2.32 2.42 2.32 z M58.74 10.42 c0.08 -0.28 0.28 -0.42 0.56 -0.42 l2.16 0 c0.36 0 0.54 0.2 0.42 0.56 l-4.32 13.04 c-0.08 0.28 -0.3 0.4 -0.58 0.4 l-2.16 0 c-0.36 0 -0.54 -0.2 -0.42 -0.56 l1.2 -3.6 l-3.52 -9.26 c-0.12 -0.34 0.04 -0.58 0.4 -0.58 l2.16 0 c0.28 0 0.46 0.14 0.56 0.4 l1.9 5.3 z M71.06 9.08 l-4.6 0 l0 2.9 l4.5 0 c0.32 0 0.5 0.18 0.5 0.5 l0 2.08 c0 0.32 -0.18 0.5 -0.5 0.5 l-4.5 0 l0 4.44 c0 0.32 -0.18 0.5 -0.5 0.5 l-2.2 0 c-0.32 0 -0.5 -0.18 -0.5 -0.5 l0 -13 c0 -0.32 0.18 -0.5 0.5 -0.5 l2.7 0 l4.6 0 c0.32 0 0.5 0.18 0.5 0.5 l0 2.08 c0 0.32 -0.18 0.5 -0.5 0.5 z M78.34 9.84 c0.34 -0.06 0.52 0.1598 0.52 0.4798 l0 2.36 c0 0.32 -0.14 0.48 -0.4 0.48 c-1.12 -0.04 -2.2 0.52 -2.2 2.12 l0 4.22 c0 0.32 -0.18 0.5 -0.5 0.5 l-2 0 c-0.32 0 -0.5 -0.18 -0.5 -0.5 l0 -9 c0 -0.32 0.18 -0.5 0.5 -0.5 l2 0 c0.32 0 0.5 0.18 0.5 0.5 l0 1.081 c0.2984 -1.004 1.0864 -1.5918 2.08 -1.7408 z M85.02 9.72 c2.92 0 5.04 2.26 5.04 5.28 c0 0.26 -0.02 0.5 -0.04 0.74 c-0.04 0.32 -0.24 0.46 -0.54 0.46 l-2.44 0 l-4.2388 0 c0.3634 1.1882 1.2966 1.66 2.3388 1.66 c0.56 0 1.12 -0.2 1.48 -0.5 c0.2 -0.16 0.36 -0.26 0.62 -0.26 l1.92 -0.02 c0.36 0 0.56 0.24 0.4 0.56 c-0.78 1.74 -2.42 2.64 -4.46 2.64 c-3.32 0 -5.44 -2.3 -5.44 -5.28 s2.2 -5.28 5.36 -5.28 z M82.7886 13.92 l4.285 0 c-0.3092 -1.138 -1.1914 -1.54 -2.0736 -1.54 c-1.1244 0 -1.9024 0.5426 -2.2114 1.54 z M96.62 10 c0.32 0 0.5 0.18 0.5 0.5 l0 1.88 c0 0.32 -0.18 0.5 -0.5 0.5 l-1.1 0 l0 6.62 c0 0.32 -0.18 0.5 -0.5 0.5 l-2 0 c-0.32 0 -0.5 -0.18 -0.5 -0.5 l0 -6.62 l-1.1 0 c-0.32 0 -0.5 -0.18 -0.5 -0.5 l0 -1.88 c0 -0.32 0.18 -0.5 0.5 -0.5 l1.1 0 l0 -2.7 c0 -0.32 0.18 -0.5 0.5 -0.5 l2 0 c0.32 0 0.5 0.18 0.5 0.5 l0 2.7 l1.1 0 z"></path></g>
			</g>
		</svg>
	